<?xml version="1.0" encoding="utf-8" standalone="no"?>
<!DOCTYPE svg PUBLIC "-//W3C//DTD SVG 1.1//EN"
  "http://www.w3.org/Graphics/SVG/1.1/DTD/svg11.dtd">
<svg height="207.83625pt" version="1.1" viewBox="0 0 329.98125 207.83625" width="329.98125pt" xmlns="http://www.w3.org/2000/svg" xmlns:xlink="http://www.w3.org/1999/xlink">
 <metadata>
  <rdf:RDF xmlns:cc="http://creativecommons.org/ns#" xmlns:dc="http://purl.org/dc/elements/1.1/" xmlns:rdf="http://www.w3.org/1999/02/22-rdf-syntax-ns#">
   <cc:Work>
    <dc:type rdf:resource="http://purl.org/dc/dcmitype/StillImage"/>
    <dc:date>2022-06-28T16:16:23.236758</dc:date>
    <dc:format>image/svg+xml</dc:format>
    <dc:creator>
     <cc:Agent>
      <dc:title>Matplotlib v3.4.3, https://matplotlib.org/</dc:title>
     </cc:Agent>
    </dc:creator>
   </cc:Work>
  </rdf:RDF>
 </metadata>
 <defs>
  <style type="text/css">*{stroke-linecap:butt;stroke-linejoin:round;}</style>
 </defs>
 <g id="figure_1">
  <g id="patch_1">
   <path d="M 0 207.83625 
L 329.98125 207.83625 
L 329.98125 0 
L 0 0 
z
" style="fill:none;"/>
  </g>
  <g id="axes_1">
   <g id="patch_2">
    <path d="M 43.78125 170.28 
L 322.78125 170.28 
L 322.78125 7.2 
L 43.78125 7.2 
z
" style="fill:#ffffff;"/>
   </g>
   <g id="matplotlib.axis_1">
    <g id="xtick_1">
     <g id="line2d_1">
      <defs>
       <path d="M 0 0 
L 0 3.5 
" id="ma037c47f6f" style="stroke:#000000;stroke-width:0.8;"/>
      </defs>
      <g>
       <use style="stroke:#000000;stroke-width:0.8;" x="56.463068" xlink:href="#ma037c47f6f" y="170.28"/>
      </g>
     </g>
     <g id="text_1">
      <!-- 0 -->
      <g transform="translate(53.281818 184.878438)scale(0.1 -0.1)">
       <defs>
        <path d="M 2034 4250 
Q 1547 4250 1301 3770 
Q 1056 3291 1056 2328 
Q 1056 1369 1301 889 
Q 1547 409 2034 409 
Q 2525 409 2770 889 
Q 3016 1369 3016 2328 
Q 3016 3291 2770 3770 
Q 2525 4250 2034 4250 
z
M 2034 4750 
Q 2819 4750 3233 4129 
Q 3647 3509 3647 2328 
Q 3647 1150 3233 529 
Q 2819 -91 2034 -91 
Q 1250 -91 836 529 
Q 422 1150 422 2328 
Q 422 3509 836 4129 
Q 1250 4750 2034 4750 
z
" id="DejaVuSans-30" transform="scale(0.015625)"/>
       </defs>
       <use xlink:href="#DejaVuSans-30"/>
      </g>
     </g>
    </g>
    <g id="xtick_2">
     <g id="line2d_2">
      <g>
       <use style="stroke:#000000;stroke-width:0.8;" x="92.021229" xlink:href="#ma037c47f6f" y="170.28"/>
      </g>
     </g>
     <g id="text_2">
      <!-- 1000 -->
      <g transform="translate(79.296229 184.878438)scale(0.1 -0.1)">
       <defs>
        <path d="M 794 531 
L 1825 531 
L 1825 4091 
L 703 3866 
L 703 4441 
L 1819 4666 
L 2450 4666 
L 2450 531 
L 3481 531 
L 3481 0 
L 794 0 
L 794 531 
z
" id="DejaVuSans-31" transform="scale(0.015625)"/>
       </defs>
       <use xlink:href="#DejaVuSans-31"/>
       <use x="63.623047" xlink:href="#DejaVuSans-30"/>
       <use x="127.246094" xlink:href="#DejaVuSans-30"/>
       <use x="190.869141" xlink:href="#DejaVuSans-30"/>
      </g>
     </g>
    </g>
    <g id="xtick_3">
     <g id="line2d_3">
      <g>
       <use style="stroke:#000000;stroke-width:0.8;" x="127.579391" xlink:href="#ma037c47f6f" y="170.28"/>
      </g>
     </g>
     <g id="text_3">
      <!-- 2000 -->
      <g transform="translate(114.854391 184.878438)scale(0.1 -0.1)">
       <defs>
        <path d="M 1228 531 
L 3431 531 
L 3431 0 
L 469 0 
L 469 531 
Q 828 903 1448 1529 
Q 2069 2156 2228 2338 
Q 2531 2678 2651 2914 
Q 2772 3150 2772 3378 
Q 2772 3750 2511 3984 
Q 2250 4219 1831 4219 
Q 1534 4219 1204 4116 
Q 875 4013 500 3803 
L 500 4441 
Q 881 4594 1212 4672 
Q 1544 4750 1819 4750 
Q 2544 4750 2975 4387 
Q 3406 4025 3406 3419 
Q 3406 3131 3298 2873 
Q 3191 2616 2906 2266 
Q 2828 2175 2409 1742 
Q 1991 1309 1228 531 
z
" id="DejaVuSans-32" transform="scale(0.015625)"/>
       </defs>
       <use xlink:href="#DejaVuSans-32"/>
       <use x="63.623047" xlink:href="#DejaVuSans-30"/>
       <use x="127.246094" xlink:href="#DejaVuSans-30"/>
       <use x="190.869141" xlink:href="#DejaVuSans-30"/>
      </g>
     </g>
    </g>
    <g id="xtick_4">
     <g id="line2d_4">
      <g>
       <use style="stroke:#000000;stroke-width:0.8;" x="163.137552" xlink:href="#ma037c47f6f" y="170.28"/>
      </g>
     </g>
     <g id="text_4">
      <!-- 3000 -->
      <g transform="translate(150.412552 184.878438)scale(0.1 -0.1)">
       <defs>
        <path d="M 2597 2516 
Q 3050 2419 3304 2112 
Q 3559 1806 3559 1356 
Q 3559 666 3084 287 
Q 2609 -91 1734 -91 
Q 1441 -91 1130 -33 
Q 819 25 488 141 
L 488 750 
Q 750 597 1062 519 
Q 1375 441 1716 441 
Q 2309 441 2620 675 
Q 2931 909 2931 1356 
Q 2931 1769 2642 2001 
Q 2353 2234 1838 2234 
L 1294 2234 
L 1294 2753 
L 1863 2753 
Q 2328 2753 2575 2939 
Q 2822 3125 2822 3475 
Q 2822 3834 2567 4026 
Q 2313 4219 1838 4219 
Q 1578 4219 1281 4162 
Q 984 4106 628 3988 
L 628 4550 
Q 988 4650 1302 4700 
Q 1616 4750 1894 4750 
Q 2613 4750 3031 4423 
Q 3450 4097 3450 3541 
Q 3450 3153 3228 2886 
Q 3006 2619 2597 2516 
z
" id="DejaVuSans-33" transform="scale(0.015625)"/>
       </defs>
       <use xlink:href="#DejaVuSans-33"/>
       <use x="63.623047" xlink:href="#DejaVuSans-30"/>
       <use x="127.246094" xlink:href="#DejaVuSans-30"/>
       <use x="190.869141" xlink:href="#DejaVuSans-30"/>
      </g>
     </g>
    </g>
    <g id="xtick_5">
     <g id="line2d_5">
      <g>
       <use style="stroke:#000000;stroke-width:0.8;" x="198.695713" xlink:href="#ma037c47f6f" y="170.28"/>
      </g>
     </g>
     <g id="text_5">
      <!-- 4000 -->
      <g transform="translate(185.970713 184.878438)scale(0.1 -0.1)">
       <defs>
        <path d="M 2419 4116 
L 825 1625 
L 2419 1625 
L 2419 4116 
z
M 2253 4666 
L 3047 4666 
L 3047 1625 
L 3713 1625 
L 3713 1100 
L 3047 1100 
L 3047 0 
L 2419 0 
L 2419 1100 
L 313 1100 
L 313 1709 
L 2253 4666 
z
" id="DejaVuSans-34" transform="scale(0.015625)"/>
       </defs>
       <use xlink:href="#DejaVuSans-34"/>
       <use x="63.623047" xlink:href="#DejaVuSans-30"/>
       <use x="127.246094" xlink:href="#DejaVuSans-30"/>
       <use x="190.869141" xlink:href="#DejaVuSans-30"/>
      </g>
     </g>
    </g>
    <g id="xtick_6">
     <g id="line2d_6">
      <g>
       <use style="stroke:#000000;stroke-width:0.8;" x="234.253874" xlink:href="#ma037c47f6f" y="170.28"/>
      </g>
     </g>
     <g id="text_6">
      <!-- 5000 -->
      <g transform="translate(221.528874 184.878438)scale(0.1 -0.1)">
       <defs>
        <path d="M 691 4666 
L 3169 4666 
L 3169 4134 
L 1269 4134 
L 1269 2991 
Q 1406 3038 1543 3061 
Q 1681 3084 1819 3084 
Q 2600 3084 3056 2656 
Q 3513 2228 3513 1497 
Q 3513 744 3044 326 
Q 2575 -91 1722 -91 
Q 1428 -91 1123 -41 
Q 819 9 494 109 
L 494 744 
Q 775 591 1075 516 
Q 1375 441 1709 441 
Q 2250 441 2565 725 
Q 2881 1009 2881 1497 
Q 2881 1984 2565 2268 
Q 2250 2553 1709 2553 
Q 1456 2553 1204 2497 
Q 953 2441 691 2322 
L 691 4666 
z
" id="DejaVuSans-35" transform="scale(0.015625)"/>
       </defs>
       <use xlink:href="#DejaVuSans-35"/>
       <use x="63.623047" xlink:href="#DejaVuSans-30"/>
       <use x="127.246094" xlink:href="#DejaVuSans-30"/>
       <use x="190.869141" xlink:href="#DejaVuSans-30"/>
      </g>
     </g>
    </g>
    <g id="xtick_7">
     <g id="line2d_7">
      <g>
       <use style="stroke:#000000;stroke-width:0.8;" x="269.812035" xlink:href="#ma037c47f6f" y="170.28"/>
      </g>
     </g>
     <g id="text_7">
      <!-- 6000 -->
      <g transform="translate(257.087035 184.878438)scale(0.1 -0.1)">
       <defs>
        <path d="M 2113 2584 
Q 1688 2584 1439 2293 
Q 1191 2003 1191 1497 
Q 1191 994 1439 701 
Q 1688 409 2113 409 
Q 2538 409 2786 701 
Q 3034 994 3034 1497 
Q 3034 2003 2786 2293 
Q 2538 2584 2113 2584 
z
M 3366 4563 
L 3366 3988 
Q 3128 4100 2886 4159 
Q 2644 4219 2406 4219 
Q 1781 4219 1451 3797 
Q 1122 3375 1075 2522 
Q 1259 2794 1537 2939 
Q 1816 3084 2150 3084 
Q 2853 3084 3261 2657 
Q 3669 2231 3669 1497 
Q 3669 778 3244 343 
Q 2819 -91 2113 -91 
Q 1303 -91 875 529 
Q 447 1150 447 2328 
Q 447 3434 972 4092 
Q 1497 4750 2381 4750 
Q 2619 4750 2861 4703 
Q 3103 4656 3366 4563 
z
" id="DejaVuSans-36" transform="scale(0.015625)"/>
       </defs>
       <use xlink:href="#DejaVuSans-36"/>
       <use x="63.623047" xlink:href="#DejaVuSans-30"/>
       <use x="127.246094" xlink:href="#DejaVuSans-30"/>
       <use x="190.869141" xlink:href="#DejaVuSans-30"/>
      </g>
     </g>
    </g>
    <g id="xtick_8">
     <g id="line2d_8">
      <g>
       <use style="stroke:#000000;stroke-width:0.8;" x="305.370196" xlink:href="#ma037c47f6f" y="170.28"/>
      </g>
     </g>
     <g id="text_8">
      <!-- 7000 -->
      <g transform="translate(292.645196 184.878438)scale(0.1 -0.1)">
       <defs>
        <path d="M 525 4666 
L 3525 4666 
L 3525 4397 
L 1831 0 
L 1172 0 
L 2766 4134 
L 525 4134 
L 525 4666 
z
" id="DejaVuSans-37" transform="scale(0.015625)"/>
       </defs>
       <use xlink:href="#DejaVuSans-37"/>
       <use x="63.623047" xlink:href="#DejaVuSans-30"/>
       <use x="127.246094" xlink:href="#DejaVuSans-30"/>
       <use x="190.869141" xlink:href="#DejaVuSans-30"/>
      </g>
     </g>
    </g>
    <g id="text_9">
     <!-- number of shots -->
     <g transform="translate(142.371875 198.556563)scale(0.1 -0.1)">
      <defs>
       <path d="M 3513 2113 
L 3513 0 
L 2938 0 
L 2938 2094 
Q 2938 2591 2744 2837 
Q 2550 3084 2163 3084 
Q 1697 3084 1428 2787 
Q 1159 2491 1159 1978 
L 1159 0 
L 581 0 
L 581 3500 
L 1159 3500 
L 1159 2956 
Q 1366 3272 1645 3428 
Q 1925 3584 2291 3584 
Q 2894 3584 3203 3211 
Q 3513 2838 3513 2113 
z
" id="DejaVuSans-6e" transform="scale(0.015625)"/>
       <path d="M 544 1381 
L 544 3500 
L 1119 3500 
L 1119 1403 
Q 1119 906 1312 657 
Q 1506 409 1894 409 
Q 2359 409 2629 706 
Q 2900 1003 2900 1516 
L 2900 3500 
L 3475 3500 
L 3475 0 
L 2900 0 
L 2900 538 
Q 2691 219 2414 64 
Q 2138 -91 1772 -91 
Q 1169 -91 856 284 
Q 544 659 544 1381 
z
M 1991 3584 
L 1991 3584 
z
" id="DejaVuSans-75" transform="scale(0.015625)"/>
       <path d="M 3328 2828 
Q 3544 3216 3844 3400 
Q 4144 3584 4550 3584 
Q 5097 3584 5394 3201 
Q 5691 2819 5691 2113 
L 5691 0 
L 5113 0 
L 5113 2094 
Q 5113 2597 4934 2840 
Q 4756 3084 4391 3084 
Q 3944 3084 3684 2787 
Q 3425 2491 3425 1978 
L 3425 0 
L 2847 0 
L 2847 2094 
Q 2847 2600 2669 2842 
Q 2491 3084 2119 3084 
Q 1678 3084 1418 2786 
Q 1159 2488 1159 1978 
L 1159 0 
L 581 0 
L 581 3500 
L 1159 3500 
L 1159 2956 
Q 1356 3278 1631 3431 
Q 1906 3584 2284 3584 
Q 2666 3584 2933 3390 
Q 3200 3197 3328 2828 
z
" id="DejaVuSans-6d" transform="scale(0.015625)"/>
       <path d="M 3116 1747 
Q 3116 2381 2855 2742 
Q 2594 3103 2138 3103 
Q 1681 3103 1420 2742 
Q 1159 2381 1159 1747 
Q 1159 1113 1420 752 
Q 1681 391 2138 391 
Q 2594 391 2855 752 
Q 3116 1113 3116 1747 
z
M 1159 2969 
Q 1341 3281 1617 3432 
Q 1894 3584 2278 3584 
Q 2916 3584 3314 3078 
Q 3713 2572 3713 1747 
Q 3713 922 3314 415 
Q 2916 -91 2278 -91 
Q 1894 -91 1617 61 
Q 1341 213 1159 525 
L 1159 0 
L 581 0 
L 581 4863 
L 1159 4863 
L 1159 2969 
z
" id="DejaVuSans-62" transform="scale(0.015625)"/>
       <path d="M 3597 1894 
L 3597 1613 
L 953 1613 
Q 991 1019 1311 708 
Q 1631 397 2203 397 
Q 2534 397 2845 478 
Q 3156 559 3463 722 
L 3463 178 
Q 3153 47 2828 -22 
Q 2503 -91 2169 -91 
Q 1331 -91 842 396 
Q 353 884 353 1716 
Q 353 2575 817 3079 
Q 1281 3584 2069 3584 
Q 2775 3584 3186 3129 
Q 3597 2675 3597 1894 
z
M 3022 2063 
Q 3016 2534 2758 2815 
Q 2500 3097 2075 3097 
Q 1594 3097 1305 2825 
Q 1016 2553 972 2059 
L 3022 2063 
z
" id="DejaVuSans-65" transform="scale(0.015625)"/>
       <path d="M 2631 2963 
Q 2534 3019 2420 3045 
Q 2306 3072 2169 3072 
Q 1681 3072 1420 2755 
Q 1159 2438 1159 1844 
L 1159 0 
L 581 0 
L 581 3500 
L 1159 3500 
L 1159 2956 
Q 1341 3275 1631 3429 
Q 1922 3584 2338 3584 
Q 2397 3584 2469 3576 
Q 2541 3569 2628 3553 
L 2631 2963 
z
" id="DejaVuSans-72" transform="scale(0.015625)"/>
       <path id="DejaVuSans-20" transform="scale(0.015625)"/>
       <path d="M 1959 3097 
Q 1497 3097 1228 2736 
Q 959 2375 959 1747 
Q 959 1119 1226 758 
Q 1494 397 1959 397 
Q 2419 397 2687 759 
Q 2956 1122 2956 1747 
Q 2956 2369 2687 2733 
Q 2419 3097 1959 3097 
z
M 1959 3584 
Q 2709 3584 3137 3096 
Q 3566 2609 3566 1747 
Q 3566 888 3137 398 
Q 2709 -91 1959 -91 
Q 1206 -91 779 398 
Q 353 888 353 1747 
Q 353 2609 779 3096 
Q 1206 3584 1959 3584 
z
" id="DejaVuSans-6f" transform="scale(0.015625)"/>
       <path d="M 2375 4863 
L 2375 4384 
L 1825 4384 
Q 1516 4384 1395 4259 
Q 1275 4134 1275 3809 
L 1275 3500 
L 2222 3500 
L 2222 3053 
L 1275 3053 
L 1275 0 
L 697 0 
L 697 3053 
L 147 3053 
L 147 3500 
L 697 3500 
L 697 3744 
Q 697 4328 969 4595 
Q 1241 4863 1831 4863 
L 2375 4863 
z
" id="DejaVuSans-66" transform="scale(0.015625)"/>
       <path d="M 2834 3397 
L 2834 2853 
Q 2591 2978 2328 3040 
Q 2066 3103 1784 3103 
Q 1356 3103 1142 2972 
Q 928 2841 928 2578 
Q 928 2378 1081 2264 
Q 1234 2150 1697 2047 
L 1894 2003 
Q 2506 1872 2764 1633 
Q 3022 1394 3022 966 
Q 3022 478 2636 193 
Q 2250 -91 1575 -91 
Q 1294 -91 989 -36 
Q 684 19 347 128 
L 347 722 
Q 666 556 975 473 
Q 1284 391 1588 391 
Q 1994 391 2212 530 
Q 2431 669 2431 922 
Q 2431 1156 2273 1281 
Q 2116 1406 1581 1522 
L 1381 1569 
Q 847 1681 609 1914 
Q 372 2147 372 2553 
Q 372 3047 722 3315 
Q 1072 3584 1716 3584 
Q 2034 3584 2315 3537 
Q 2597 3491 2834 3397 
z
" id="DejaVuSans-73" transform="scale(0.015625)"/>
       <path d="M 3513 2113 
L 3513 0 
L 2938 0 
L 2938 2094 
Q 2938 2591 2744 2837 
Q 2550 3084 2163 3084 
Q 1697 3084 1428 2787 
Q 1159 2491 1159 1978 
L 1159 0 
L 581 0 
L 581 4863 
L 1159 4863 
L 1159 2956 
Q 1366 3272 1645 3428 
Q 1925 3584 2291 3584 
Q 2894 3584 3203 3211 
Q 3513 2838 3513 2113 
z
" id="DejaVuSans-68" transform="scale(0.015625)"/>
       <path d="M 1172 4494 
L 1172 3500 
L 2356 3500 
L 2356 3053 
L 1172 3053 
L 1172 1153 
Q 1172 725 1289 603 
Q 1406 481 1766 481 
L 2356 481 
L 2356 0 
L 1766 0 
Q 1100 0 847 248 
Q 594 497 594 1153 
L 594 3053 
L 172 3053 
L 172 3500 
L 594 3500 
L 594 4494 
L 1172 4494 
z
" id="DejaVuSans-74" transform="scale(0.015625)"/>
      </defs>
      <use xlink:href="#DejaVuSans-6e"/>
      <use x="63.378906" xlink:href="#DejaVuSans-75"/>
      <use x="126.757812" xlink:href="#DejaVuSans-6d"/>
      <use x="224.169922" xlink:href="#DejaVuSans-62"/>
      <use x="287.646484" xlink:href="#DejaVuSans-65"/>
      <use x="349.169922" xlink:href="#DejaVuSans-72"/>
      <use x="390.283203" xlink:href="#DejaVuSans-20"/>
      <use x="422.070312" xlink:href="#DejaVuSans-6f"/>
      <use x="483.251953" xlink:href="#DejaVuSans-66"/>
      <use x="518.457031" xlink:href="#DejaVuSans-20"/>
      <use x="550.244141" xlink:href="#DejaVuSans-73"/>
      <use x="602.34375" xlink:href="#DejaVuSans-68"/>
      <use x="665.722656" xlink:href="#DejaVuSans-6f"/>
      <use x="726.904297" xlink:href="#DejaVuSans-74"/>
      <use x="766.113281" xlink:href="#DejaVuSans-73"/>
     </g>
    </g>
   </g>
   <g id="matplotlib.axis_2">
    <g id="ytick_1">
     <g id="line2d_9">
      <defs>
       <path d="M 0 0 
L -3.5 0 
" id="m47bd9348dd" style="stroke:#000000;stroke-width:0.8;"/>
      </defs>
      <g>
       <use style="stroke:#000000;stroke-width:0.8;" x="43.78125" xlink:href="#m47bd9348dd" y="162.89039"/>
      </g>
     </g>
     <g id="text_10">
      <!-- 0.0 -->
      <g transform="translate(20.878125 166.689608)scale(0.1 -0.1)">
       <defs>
        <path d="M 684 794 
L 1344 794 
L 1344 0 
L 684 0 
L 684 794 
z
" id="DejaVuSans-2e" transform="scale(0.015625)"/>
       </defs>
       <use xlink:href="#DejaVuSans-30"/>
       <use x="63.623047" xlink:href="#DejaVuSans-2e"/>
       <use x="95.410156" xlink:href="#DejaVuSans-30"/>
      </g>
     </g>
    </g>
    <g id="ytick_2">
     <g id="line2d_10">
      <g>
       <use style="stroke:#000000;stroke-width:0.8;" x="43.78125" xlink:href="#m47bd9348dd" y="129.404298"/>
      </g>
     </g>
     <g id="text_11">
      <!-- 0.2 -->
      <g transform="translate(20.878125 133.203517)scale(0.1 -0.1)">
       <use xlink:href="#DejaVuSans-30"/>
       <use x="63.623047" xlink:href="#DejaVuSans-2e"/>
       <use x="95.410156" xlink:href="#DejaVuSans-32"/>
      </g>
     </g>
    </g>
    <g id="ytick_3">
     <g id="line2d_11">
      <g>
       <use style="stroke:#000000;stroke-width:0.8;" x="43.78125" xlink:href="#m47bd9348dd" y="95.918206"/>
      </g>
     </g>
     <g id="text_12">
      <!-- 0.4 -->
      <g transform="translate(20.878125 99.717425)scale(0.1 -0.1)">
       <use xlink:href="#DejaVuSans-30"/>
       <use x="63.623047" xlink:href="#DejaVuSans-2e"/>
       <use x="95.410156" xlink:href="#DejaVuSans-34"/>
      </g>
     </g>
    </g>
    <g id="ytick_4">
     <g id="line2d_12">
      <g>
       <use style="stroke:#000000;stroke-width:0.8;" x="43.78125" xlink:href="#m47bd9348dd" y="62.432114"/>
      </g>
     </g>
     <g id="text_13">
      <!-- 0.6 -->
      <g transform="translate(20.878125 66.231333)scale(0.1 -0.1)">
       <use xlink:href="#DejaVuSans-30"/>
       <use x="63.623047" xlink:href="#DejaVuSans-2e"/>
       <use x="95.410156" xlink:href="#DejaVuSans-36"/>
      </g>
     </g>
    </g>
    <g id="ytick_5">
     <g id="line2d_13">
      <g>
       <use style="stroke:#000000;stroke-width:0.8;" x="43.78125" xlink:href="#m47bd9348dd" y="28.946022"/>
      </g>
     </g>
     <g id="text_14">
      <!-- 0.8 -->
      <g transform="translate(20.878125 32.745241)scale(0.1 -0.1)">
       <defs>
        <path d="M 2034 2216 
Q 1584 2216 1326 1975 
Q 1069 1734 1069 1313 
Q 1069 891 1326 650 
Q 1584 409 2034 409 
Q 2484 409 2743 651 
Q 3003 894 3003 1313 
Q 3003 1734 2745 1975 
Q 2488 2216 2034 2216 
z
M 1403 2484 
Q 997 2584 770 2862 
Q 544 3141 544 3541 
Q 544 4100 942 4425 
Q 1341 4750 2034 4750 
Q 2731 4750 3128 4425 
Q 3525 4100 3525 3541 
Q 3525 3141 3298 2862 
Q 3072 2584 2669 2484 
Q 3125 2378 3379 2068 
Q 3634 1759 3634 1313 
Q 3634 634 3220 271 
Q 2806 -91 2034 -91 
Q 1263 -91 848 271 
Q 434 634 434 1313 
Q 434 1759 690 2068 
Q 947 2378 1403 2484 
z
M 1172 3481 
Q 1172 3119 1398 2916 
Q 1625 2713 2034 2713 
Q 2441 2713 2670 2916 
Q 2900 3119 2900 3481 
Q 2900 3844 2670 4047 
Q 2441 4250 2034 4250 
Q 1625 4250 1398 4047 
Q 1172 3844 1172 3481 
z
" id="DejaVuSans-38" transform="scale(0.015625)"/>
       </defs>
       <use xlink:href="#DejaVuSans-30"/>
       <use x="63.623047" xlink:href="#DejaVuSans-2e"/>
       <use x="95.410156" xlink:href="#DejaVuSans-38"/>
      </g>
     </g>
    </g>
    <g id="text_15">
     <!-- probabiliy of scoring -->
     <g transform="translate(14.798438 139.654063)rotate(-90)scale(0.1 -0.1)">
      <defs>
       <path d="M 1159 525 
L 1159 -1331 
L 581 -1331 
L 581 3500 
L 1159 3500 
L 1159 2969 
Q 1341 3281 1617 3432 
Q 1894 3584 2278 3584 
Q 2916 3584 3314 3078 
Q 3713 2572 3713 1747 
Q 3713 922 3314 415 
Q 2916 -91 2278 -91 
Q 1894 -91 1617 61 
Q 1341 213 1159 525 
z
M 3116 1747 
Q 3116 2381 2855 2742 
Q 2594 3103 2138 3103 
Q 1681 3103 1420 2742 
Q 1159 2381 1159 1747 
Q 1159 1113 1420 752 
Q 1681 391 2138 391 
Q 2594 391 2855 752 
Q 3116 1113 3116 1747 
z
" id="DejaVuSans-70" transform="scale(0.015625)"/>
       <path d="M 2194 1759 
Q 1497 1759 1228 1600 
Q 959 1441 959 1056 
Q 959 750 1161 570 
Q 1363 391 1709 391 
Q 2188 391 2477 730 
Q 2766 1069 2766 1631 
L 2766 1759 
L 2194 1759 
z
M 3341 1997 
L 3341 0 
L 2766 0 
L 2766 531 
Q 2569 213 2275 61 
Q 1981 -91 1556 -91 
Q 1019 -91 701 211 
Q 384 513 384 1019 
Q 384 1609 779 1909 
Q 1175 2209 1959 2209 
L 2766 2209 
L 2766 2266 
Q 2766 2663 2505 2880 
Q 2244 3097 1772 3097 
Q 1472 3097 1187 3025 
Q 903 2953 641 2809 
L 641 3341 
Q 956 3463 1253 3523 
Q 1550 3584 1831 3584 
Q 2591 3584 2966 3190 
Q 3341 2797 3341 1997 
z
" id="DejaVuSans-61" transform="scale(0.015625)"/>
       <path d="M 603 3500 
L 1178 3500 
L 1178 0 
L 603 0 
L 603 3500 
z
M 603 4863 
L 1178 4863 
L 1178 4134 
L 603 4134 
L 603 4863 
z
" id="DejaVuSans-69" transform="scale(0.015625)"/>
       <path d="M 603 4863 
L 1178 4863 
L 1178 0 
L 603 0 
L 603 4863 
z
" id="DejaVuSans-6c" transform="scale(0.015625)"/>
       <path d="M 2059 -325 
Q 1816 -950 1584 -1140 
Q 1353 -1331 966 -1331 
L 506 -1331 
L 506 -850 
L 844 -850 
Q 1081 -850 1212 -737 
Q 1344 -625 1503 -206 
L 1606 56 
L 191 3500 
L 800 3500 
L 1894 763 
L 2988 3500 
L 3597 3500 
L 2059 -325 
z
" id="DejaVuSans-79" transform="scale(0.015625)"/>
       <path d="M 3122 3366 
L 3122 2828 
Q 2878 2963 2633 3030 
Q 2388 3097 2138 3097 
Q 1578 3097 1268 2742 
Q 959 2388 959 1747 
Q 959 1106 1268 751 
Q 1578 397 2138 397 
Q 2388 397 2633 464 
Q 2878 531 3122 666 
L 3122 134 
Q 2881 22 2623 -34 
Q 2366 -91 2075 -91 
Q 1284 -91 818 406 
Q 353 903 353 1747 
Q 353 2603 823 3093 
Q 1294 3584 2113 3584 
Q 2378 3584 2631 3529 
Q 2884 3475 3122 3366 
z
" id="DejaVuSans-63" transform="scale(0.015625)"/>
       <path d="M 2906 1791 
Q 2906 2416 2648 2759 
Q 2391 3103 1925 3103 
Q 1463 3103 1205 2759 
Q 947 2416 947 1791 
Q 947 1169 1205 825 
Q 1463 481 1925 481 
Q 2391 481 2648 825 
Q 2906 1169 2906 1791 
z
M 3481 434 
Q 3481 -459 3084 -895 
Q 2688 -1331 1869 -1331 
Q 1566 -1331 1297 -1286 
Q 1028 -1241 775 -1147 
L 775 -588 
Q 1028 -725 1275 -790 
Q 1522 -856 1778 -856 
Q 2344 -856 2625 -561 
Q 2906 -266 2906 331 
L 2906 616 
Q 2728 306 2450 153 
Q 2172 0 1784 0 
Q 1141 0 747 490 
Q 353 981 353 1791 
Q 353 2603 747 3093 
Q 1141 3584 1784 3584 
Q 2172 3584 2450 3431 
Q 2728 3278 2906 2969 
L 2906 3500 
L 3481 3500 
L 3481 434 
z
" id="DejaVuSans-67" transform="scale(0.015625)"/>
      </defs>
      <use xlink:href="#DejaVuSans-70"/>
      <use x="63.476562" xlink:href="#DejaVuSans-72"/>
      <use x="102.339844" xlink:href="#DejaVuSans-6f"/>
      <use x="163.521484" xlink:href="#DejaVuSans-62"/>
      <use x="226.998047" xlink:href="#DejaVuSans-61"/>
      <use x="288.277344" xlink:href="#DejaVuSans-62"/>
      <use x="351.753906" xlink:href="#DejaVuSans-69"/>
      <use x="379.537109" xlink:href="#DejaVuSans-6c"/>
      <use x="407.320312" xlink:href="#DejaVuSans-69"/>
      <use x="435.103516" xlink:href="#DejaVuSans-79"/>
      <use x="494.283203" xlink:href="#DejaVuSans-20"/>
      <use x="526.070312" xlink:href="#DejaVuSans-6f"/>
      <use x="587.251953" xlink:href="#DejaVuSans-66"/>
      <use x="622.457031" xlink:href="#DejaVuSans-20"/>
      <use x="654.244141" xlink:href="#DejaVuSans-73"/>
      <use x="706.34375" xlink:href="#DejaVuSans-63"/>
      <use x="761.324219" xlink:href="#DejaVuSans-6f"/>
      <use x="822.505859" xlink:href="#DejaVuSans-72"/>
      <use x="863.619141" xlink:href="#DejaVuSans-69"/>
      <use x="891.402344" xlink:href="#DejaVuSans-6e"/>
      <use x="954.78125" xlink:href="#DejaVuSans-67"/>
     </g>
    </g>
   </g>
   <g id="line2d_14">
    <path clip-path="url(#p2c07cdf19e)" d="M 56.463068 162.867273 
L 56.960882 162.643903 
L 57.600929 162.165593 
L 57.956511 162.056452 
L 58.276534 161.991061 
L 59.023256 161.861664 
L 61.405653 161.422942 
L 62.259048 161.329343 
L 62.543514 161.294714 
L 63.361351 161.184151 
L 64.036957 161.140245 
L 64.819236 161.033835 
L 65.068143 161.00252 
L 66.703819 160.892642 
L 69.015099 160.657777 
L 70.437426 160.548772 
L 70.721891 160.51189 
L 72.357566 160.401801 
L 73.779893 160.257206 
L 74.135474 160.223086 
L 75.806708 160.124561 
L 75.984499 160.09249 
L 78.046872 159.987558 
L 78.224663 159.955342 
L 78.829152 159.927192 
L 80.038129 159.830669 
L 80.464827 159.754815 
L 83.30948 159.646433 
L 83.593945 159.618298 
L 85.514086 159.514805 
L 85.656319 159.463769 
L 88.14539 159.353894 
L 93.834696 159.031999 
L 96.110418 158.921202 
L 96.288209 158.890031 
L 97.42607 158.797888 
L 97.603861 158.76844 
L 101.728607 158.666713 
L 101.977514 158.593414 
L 103.22205 158.490558 
L 103.506515 158.470175 
L 105.568889 158.359967 
L 105.92447 158.347802 
L 107.631262 158.271557 
L 107.809053 158.235041 
L 109.373612 158.128181 
L 110.155892 158.107226 
L 111.54266 158.00142 
L 111.756009 157.973729 
L 114.24508 157.890652 
L 114.422871 157.861549 
L 116.271895 157.759941 
L 116.449686 157.667279 
L 118.263152 157.586369 
L 118.405385 157.534648 
L 120.361084 157.472571 
L 120.503316 157.420786 
L 123.099062 157.341755 
L 123.241295 157.285265 
L 124.948087 157.197607 
L 125.125877 157.165093 
L 125.979273 157.093029 
L 126.157064 157.04694 
L 127.757181 156.961077 
L 127.934972 156.931918 
L 130.459602 156.839377 
L 130.672951 156.81472 
L 132.877557 156.71535 
L 133.090906 156.687131 
L 134.015418 156.582659 
L 134.15765 156.53144 
L 135.579977 156.426215 
L 136.540047 156.367848 
L 138.211281 156.317978 
L 138.353513 156.230958 
L 139.526933 156.170896 
L 139.669165 156.115351 
L 140.984817 156.005575 
L 141.269283 155.986437 
L 143.793912 155.909392 
L 143.936145 155.860792 
L 145.465146 155.772436 
L 145.607378 155.725924 
L 147.811984 155.640504 
L 147.954217 155.554524 
L 149.803241 155.485615 
L 149.945474 155.375593 
L 151.332242 155.324524 
L 151.510033 155.207487 
L 153.750197 155.100967 
L 154.070221 155.087049 
L 156.98599 154.9818 
L 157.270455 154.966557 
L 157.768269 154.958628 
L 157.910502 154.828327 
L 159.012805 154.758529 
L 159.190596 154.688082 
L 160.328457 154.582177 
L 160.861829 154.540409 
L 161.501876 154.530027 
L 162.39083 154.456801 
L 162.533063 154.398343 
L 163.919831 154.322517 
L 164.062064 154.275957 
L 165.093251 154.166467 
L 165.235483 154.089967 
L 167.404531 153.982446 
L 167.653438 153.942478 
L 168.364601 153.937521 
L 168.506834 153.786629 
L 170.782556 153.69691 
L 170.924789 153.595561 
L 172.951604 153.506835 
L 173.093837 153.444277 
L 173.378302 153.442677 
L 173.520535 153.32338 
L 174.018349 153.30521 
L 174.160582 153.208057 
L 175.867373 153.111635 
L 176.009606 152.974293 
L 177.751956 152.879092 
L 177.894189 152.829165 
L 179.458748 152.753334 
L 179.60098 152.67644 
L 180.703283 152.646575 
L 180.845516 152.546961 
L 181.663354 152.487146 
L 181.805586 152.434608 
L 182.872331 152.412705 
L 183.014564 152.306053 
L 184.152425 152.203763 
L 184.294658 152.139091 
L 185.61031 152.031291 
L 185.752542 151.94295 
L 186.783729 151.918195 
L 186.925962 151.802282 
L 188.70387 151.696432 
L 188.88166 151.662572 
L 189.237242 151.559698 
L 189.415033 151.50788 
L 190.730685 151.404908 
L 190.872917 151.265249 
L 192.259686 151.157969 
L 192.508593 151.139437 
L 193.219756 151.08354 
L 193.361989 150.907853 
L 194.748757 150.805352 
L 195.175455 150.761675 
L 196.2422 150.669173 
L 196.384432 150.551512 
L 198.020108 150.48591 
L 198.16234 150.25455 
L 198.731271 150.227145 
L 198.873504 150.049626 
L 200.544737 149.979221 
L 200.68697 149.922929 
L 201.006993 149.822478 
L 201.149226 149.730515 
L 203.460506 149.623653 
L 203.673855 149.525207 
L 204.278344 149.525207 
L 204.420577 149.358416 
L 205.558438 149.284645 
L 205.700671 149.180919 
L 207.016323 149.072004 
L 207.194113 149.041482 
L 207.620811 149.041482 
L 207.763044 148.894171 
L 208.189742 148.832896 
L 208.331975 148.673791 
L 209.114254 148.579766 
L 209.256487 148.524214 
L 210.216557 148.417909 
L 210.35879 148.33357 
L 211.71 148.280734 
L 211.852233 148.20742 
L 213.274559 148.155451 
L 213.416792 148.063261 
L 213.559024 148.063261 
L 213.701257 147.898155 
L 214.270187 147.832297 
L 214.41242 147.699311 
L 214.447978 147.699311 
L 214.590211 147.544201 
L 214.839118 147.524905 
L 215.941421 147.517305 
L 216.083654 147.344198 
L 217.328189 147.30786 
L 217.470422 147.098057 
L 218.537167 147.001659 
L 218.679399 146.914317 
L 219.675028 146.91087 
L 219.817261 146.692864 
L 220.457308 146.59102 
L 220.59954 146.469598 
L 222.021867 146.411872 
L 222.164099 146.249956 
L 223.408635 146.151304 
L 223.550868 145.951281 
L 223.835333 145.877015 
L 223.977565 145.832453 
L 224.653171 145.832453 
L 224.795403 145.663802 
L 225.506566 145.556893 
L 225.648799 145.506553 
L 228.600126 145.442982 
L 228.742359 145.242458 
L 228.849034 145.239976 
L 228.991266 144.996533 
L 229.737988 144.949121 
L 229.88022 144.586287 
L 231.124756 144.544183 
L 231.266989 144.31017 
L 232.369291 144.235422 
L 232.511524 144.108067 
L 234.004967 144.028069 
L 234.1472 143.959784 
L 235.213944 143.85872 
L 235.356177 143.808697 
L 236.06734 143.764528 
L 236.209573 143.382048 
L 236.742945 143.333667 
L 236.885178 143.195654 
L 236.956294 143.149167 
L 237.098527 142.959841 
L 237.774132 142.854141 
L 238.023039 142.76812 
L 238.556412 142.677912 
L 238.698644 142.561925 
L 239.409807 142.561925 
L 239.587598 142.341001 
L 240.654343 142.26451 
L 240.796576 142.152103 
L 242.325577 142.047228 
L 242.467809 141.773392 
L 242.752275 141.746925 
L 242.894507 141.625428 
L 243.214531 141.625428 
L 243.356763 141.509521 
L 243.712345 141.433887 
L 243.854578 141.302439 
L 244.210159 141.302439 
L 244.352392 141.118457 
L 244.77909 141.118457 
L 244.921322 140.848437 
L 245.490253 140.757225 
L 245.632486 140.559945 
L 245.774718 140.425686 
L 245.916951 140.377008 
L 247.339277 140.347262 
L 247.48151 140.22052 
L 248.44158 140.127732 
L 248.619371 140.094093 
L 249.650558 140.050457 
L 249.79279 139.747442 
L 250.18393 139.747442 
L 250.326163 139.435572 
L 250.503954 139.435572 
L 250.646186 139.18277 
L 251.641815 139.149662 
L 251.784047 138.947792 
L 252.104071 138.947792 
L 252.246304 138.657198 
L 252.957467 138.565328 
L 253.384165 138.371267 
L 253.597514 138.284697 
L 253.739746 138.073913 
L 255.908794 137.982808 
L 256.051027 137.662254 
L 256.76219 137.592502 
L 256.904423 137.123207 
L 257.295562 137.123207 
L 257.437795 136.984732 
L 257.971168 136.97835 
L 258.184517 136.51927 
L 258.789005 136.51927 
L 258.931238 136.356044 
L 260.104657 136.249717 
L 260.24689 135.989172 
L 260.531355 135.989172 
L 260.673588 135.797432 
L 261.775891 135.776113 
L 261.918123 135.604818 
L 262.309263 135.604818 
L 262.451496 135.47441 
L 263.233775 135.444105 
L 263.482683 134.94688 
L 263.90938 134.836772 
L 264.051613 134.717785 
L 264.620544 134.717785 
L 264.762776 134.23675 
L 264.798334 134.23675 
L 264.940567 133.975337 
L 265.118358 133.975337 
L 265.260591 133.80385 
L 265.687289 133.80385 
L 265.829521 133.625388 
L 266.931824 133.534155 
L 267.074057 133.371291 
L 267.216289 133.371291 
L 267.358522 133.167605 
L 268.709732 133.067198 
L 268.887523 133.026313 
L 269.278663 133.026313 
L 269.420895 132.872239 
L 269.91871 132.872239 
L 270.060942 132.177269 
L 270.87878 132.091455 
L 271.021013 131.766286 
L 271.518827 131.766286 
L 271.66106 131.621202 
L 271.874409 131.621202 
L 272.016641 131.495113 
L 273.438968 131.451513 
L 273.5812 130.744189 
L 273.687875 130.744189 
L 273.830107 130.521238 
L 274.647945 130.446308 
L 274.790178 130.227987 
L 275.003527 130.227987 
L 275.145759 130.085392 
L 275.465783 130.085392 
L 275.608015 129.443891 
L 276.212504 129.443891 
L 276.354737 129.230969 
L 276.568086 129.230969 
L 276.745877 128.955276 
L 277.137016 128.955276 
L 277.279249 128.687932 
L 277.563714 128.687932 
L 277.705947 128.383261 
L 277.741505 128.383261 
L 277.883738 128.126744 
L 278.097087 128.126744 
L 278.239319 127.973929 
L 278.559343 127.973929 
L 278.701576 127.586098 
L 279.910553 127.546979 
L 280.052786 127.419012 
L 280.15946 127.419012 
L 280.301693 127.284598 
L 281.11953 127.184943 
L 281.261763 126.233411 
L 281.368438 126.233411 
L 281.51067 125.874351 
L 282.079601 125.874351 
L 282.221833 125.496082 
L 282.755206 125.496082 
L 282.897439 124.536169 
L 283.537485 124.510805 
L 283.679718 124.362816 
L 283.857509 124.362816 
L 283.999742 124.137773 
L 284.355323 124.137773 
L 284.497556 123.769268 
L 284.888696 123.693602 
L 285.066486 123.484644 
L 285.77765 123.484644 
L 285.919882 123.215481 
L 286.417696 123.215481 
L 286.559929 122.864019 
L 286.844394 122.864019 
L 286.986627 122.632847 
L 287.306651 122.632847 
L 287.448883 121.620349 
L 287.626674 121.620349 
L 287.768907 121.192789 
L 288.373395 121.184391 
L 288.515628 120.135523 
L 289.191233 120.06171 
L 289.333466 119.494104 
L 289.795722 119.494104 
L 289.937954 119.246988 
L 290.115745 119.160087 
L 290.257978 118.414181 
L 290.435769 118.414181 
L 290.578001 118.234049 
L 290.684676 118.234049 
L 290.826908 117.607145 
L 290.898025 117.607145 
L 291.040257 117.439502 
L 291.431397 117.439502 
L 291.57363 117.310219 
L 291.609188 117.310219 
L 291.751421 117.168355 
L 291.96477 117.168355 
L 292.107002 116.606852 
L 292.249235 116.467848 
L 292.569258 116.467848 
L 292.711491 115.903981 
L 293.031514 115.903981 
L 293.173747 115.765004 
L 293.458212 115.765004 
L 293.600445 113.825385 
L 293.991585 113.825385 
L 294.133817 113.325498 
L 294.169376 113.325498 
L 294.311608 113.041916 
L 294.66719 113.041916 
L 294.809423 112.233466 
L 294.916097 112.233466 
L 295.05833 111.384095 
L 295.449469 111.342759 
L 295.591702 111.270047 
L 295.911726 111.270047 
L 296.053958 110.91214 
L 296.160633 110.91214 
L 296.302865 110.699054 
L 296.480656 110.699054 
L 296.622889 109.95166 
L 296.942912 109.95166 
L 297.085145 109.410501 
L 297.405168 109.410501 
L 297.547401 107.351276 
L 297.902983 107.351276 
L 298.045215 107.165428 
L 298.32968 107.165428 
L 298.471913 106.964756 
L 298.507471 106.964756 
L 298.649704 105.995488 
L 298.791937 105.995488 
L 298.934169 105.4019 
L 299.218634 105.4019 
L 299.360867 104.134038 
L 299.467542 104.134038 
L 299.609774 103.723431 
L 299.823123 103.723431 
L 299.965356 103.315217 
L 300.320937 103.315217 
L 300.46317 102.980411 
L 300.569845 102.980411 
L 300.712077 100.732431 
L 300.747635 100.732431 
L 300.889868 100.070936 
L 301.316566 100.061925 
L 301.601031 97.543119 
L 301.707706 97.543119 
L 301.849938 95.960267 
L 302.667776 95.883226 
L 302.845567 94.669324 
L 303.094474 94.669324 
L 303.236707 93.738396 
L 303.485614 93.738396 
L 303.663405 89.400441 
L 303.983428 89.400441 
L 304.125661 88.504197 
L 304.374568 88.504197 
L 304.516801 87.571284 
L 304.765708 87.571284 
L 304.90794 86.494032 
L 305.014615 86.494032 
L 305.156847 86.232736 
L 305.263522 86.232736 
L 305.583545 85.369999 
L 305.725778 82.264966 
L 305.832452 82.264966 
L 305.974685 78.341843 
L 306.508058 78.289592 
L 306.65029 78.188585 
L 306.863639 78.188585 
L 307.005872 75.575103 
L 307.076988 75.575103 
L 307.219221 71.509589 
L 307.290337 71.509589 
L 307.468128 67.92774 
L 307.574802 67.92774 
L 307.717035 66.281242 
L 307.752593 66.281242 
L 307.894826 62.997562 
L 308.072617 62.997562 
L 308.214849 61.895395 
L 308.321524 61.895395 
L 308.463756 59.277903 
L 308.570431 59.277903 
L 308.712664 55.791354 
L 308.78378 55.791354 
L 308.926012 52.923589 
L 309.032687 52.923589 
L 309.17492 48.957003 
L 309.210478 48.957003 
L 309.35271 47.632912 
L 309.388269 47.632912 
L 309.530501 38.388779 
L 309.708292 38.388779 
L 309.850525 32.795262 
L 309.957199 32.795262 
L 310.099432 14.612727 
L 310.099432 14.612727 
" style="fill:none;stroke:#1f77b4;stroke-linecap:square;stroke-width:1.5;"/>
   </g>
   <g id="patch_3">
    <path d="M 43.78125 170.28 
L 43.78125 7.2 
" style="fill:none;stroke:#000000;stroke-linecap:square;stroke-linejoin:miter;stroke-width:0.8;"/>
   </g>
   <g id="patch_4">
    <path d="M 322.78125 170.28 
L 322.78125 7.2 
" style="fill:none;stroke:#000000;stroke-linecap:square;stroke-linejoin:miter;stroke-width:0.8;"/>
   </g>
   <g id="patch_5">
    <path d="M 43.78125 170.28 
L 322.78125 170.28 
" style="fill:none;stroke:#000000;stroke-linecap:square;stroke-linejoin:miter;stroke-width:0.8;"/>
   </g>
   <g id="patch_6">
    <path d="M 43.78125 7.2 
L 322.78125 7.2 
" style="fill:none;stroke:#000000;stroke-linecap:square;stroke-linejoin:miter;stroke-width:0.8;"/>
   </g>
  </g>
 </g>
 <defs>
  <clipPath id="p2c07cdf19e">
   <rect height="163.08" width="279" x="43.78125" y="7.2"/>
  </clipPath>
 </defs>
</svg>
