<?xml version="1.0" encoding="utf-8" standalone="no"?>
<!DOCTYPE svg PUBLIC "-//W3C//DTD SVG 1.1//EN"
  "http://www.w3.org/Graphics/SVG/1.1/DTD/svg11.dtd">
<svg xmlns:xlink="http://www.w3.org/1999/xlink" width="615.34375pt" height="283.259625pt" viewBox="0 0 615.34375 283.259625" xmlns="http://www.w3.org/2000/svg" version="1.1">
 <metadata>
  <rdf:RDF xmlns:dc="http://purl.org/dc/elements/1.1/" xmlns:cc="http://creativecommons.org/ns#" xmlns:rdf="http://www.w3.org/1999/02/22-rdf-syntax-ns#">
   <cc:Work>
    <dc:type rdf:resource="http://purl.org/dc/dcmitype/StillImage"/>
    <dc:date>2022-09-08T11:28:19.273986</dc:date>
    <dc:format>image/svg+xml</dc:format>
    <dc:creator>
     <cc:Agent>
      <dc:title>Matplotlib v3.5.1, https://matplotlib.org/</dc:title>
     </cc:Agent>
    </dc:creator>
   </cc:Work>
  </rdf:RDF>
 </metadata>
 <defs>
  <style type="text/css">*{stroke-linejoin: round; stroke-linecap: butt}</style>
 </defs>
 <g id="figure_1">
  <g id="patch_1">
   <path d="M 0 283.259625 
L 615.34375 283.259625 
L 615.34375 0 
L 0 0 
L 0 283.259625 
z
" style="fill: none"/>
  </g>
  <g id="axes_1">
   <g id="patch_2">
    <path d="M 50.14375 224.64 
L 303.780114 224.64 
L 303.780114 7.2 
L 50.14375 7.2 
z
" style="fill: #ffffff"/>
   </g>
   <g id="matplotlib.axis_1">
    <g id="xtick_1">
     <g id="line2d_1">
      <path d="M 73.201601 224.64 
L 73.201601 7.2 
" clip-path="url(#p1522bbc570)" style="fill: none; stroke-dasharray: 1.6,0.4,0.25,0.4; stroke-dashoffset: 0; stroke: #000000; stroke-width: 0.25"/>
     </g>
     <g id="line2d_2">
      <defs>
       <path id="m86c2fe1d66" d="M 0 0 
L 0 3.5 
" style="stroke: #000000; stroke-width: 0.8"/>
      </defs>
      <g>
       <use xlink:href="#m86c2fe1d66" x="73.201601" y="224.64" style="stroke: #000000; stroke-width: 0.8"/>
      </g>
     </g>
     <g id="text_1">
      <!-- 0 -->
      <g transform="translate(70.020351 239.238437)scale(0.1 -0.1)">
       <defs>
        <path id="DejaVuSans-30" d="M 2034 4250 
Q 1547 4250 1301 3770 
Q 1056 3291 1056 2328 
Q 1056 1369 1301 889 
Q 1547 409 2034 409 
Q 2525 409 2770 889 
Q 3016 1369 3016 2328 
Q 3016 3291 2770 3770 
Q 2525 4250 2034 4250 
z
M 2034 4750 
Q 2819 4750 3233 4129 
Q 3647 3509 3647 2328 
Q 3647 1150 3233 529 
Q 2819 -91 2034 -91 
Q 1250 -91 836 529 
Q 422 1150 422 2328 
Q 422 3509 836 4129 
Q 1250 4750 2034 4750 
z
" transform="scale(0.015625)"/>
       </defs>
       <use xlink:href="#DejaVuSans-30"/>
      </g>
     </g>
    </g>
    <g id="xtick_2">
     <g id="line2d_3">
      <path d="M 119.317304 224.64 
L 119.317304 7.2 
" clip-path="url(#p1522bbc570)" style="fill: none; stroke-dasharray: 1.6,0.4,0.25,0.4; stroke-dashoffset: 0; stroke: #000000; stroke-width: 0.25"/>
     </g>
     <g id="line2d_4">
      <g>
       <use xlink:href="#m86c2fe1d66" x="119.317304" y="224.64" style="stroke: #000000; stroke-width: 0.8"/>
      </g>
     </g>
     <g id="text_2">
      <!-- 20 -->
      <g transform="translate(112.954804 239.238437)scale(0.1 -0.1)">
       <defs>
        <path id="DejaVuSans-32" d="M 1228 531 
L 3431 531 
L 3431 0 
L 469 0 
L 469 531 
Q 828 903 1448 1529 
Q 2069 2156 2228 2338 
Q 2531 2678 2651 2914 
Q 2772 3150 2772 3378 
Q 2772 3750 2511 3984 
Q 2250 4219 1831 4219 
Q 1534 4219 1204 4116 
Q 875 4013 500 3803 
L 500 4441 
Q 881 4594 1212 4672 
Q 1544 4750 1819 4750 
Q 2544 4750 2975 4387 
Q 3406 4025 3406 3419 
Q 3406 3131 3298 2873 
Q 3191 2616 2906 2266 
Q 2828 2175 2409 1742 
Q 1991 1309 1228 531 
z
" transform="scale(0.015625)"/>
       </defs>
       <use xlink:href="#DejaVuSans-32"/>
       <use xlink:href="#DejaVuSans-30" x="63.623047"/>
      </g>
     </g>
    </g>
    <g id="xtick_3">
     <g id="line2d_5">
      <path d="M 165.433006 224.64 
L 165.433006 7.2 
" clip-path="url(#p1522bbc570)" style="fill: none; stroke-dasharray: 1.6,0.4,0.25,0.4; stroke-dashoffset: 0; stroke: #000000; stroke-width: 0.25"/>
     </g>
     <g id="line2d_6">
      <g>
       <use xlink:href="#m86c2fe1d66" x="165.433006" y="224.64" style="stroke: #000000; stroke-width: 0.8"/>
      </g>
     </g>
     <g id="text_3">
      <!-- 40 -->
      <g transform="translate(159.070506 239.238437)scale(0.1 -0.1)">
       <defs>
        <path id="DejaVuSans-34" d="M 2419 4116 
L 825 1625 
L 2419 1625 
L 2419 4116 
z
M 2253 4666 
L 3047 4666 
L 3047 1625 
L 3713 1625 
L 3713 1100 
L 3047 1100 
L 3047 0 
L 2419 0 
L 2419 1100 
L 313 1100 
L 313 1709 
L 2253 4666 
z
" transform="scale(0.015625)"/>
       </defs>
       <use xlink:href="#DejaVuSans-34"/>
       <use xlink:href="#DejaVuSans-30" x="63.623047"/>
      </g>
     </g>
    </g>
    <g id="xtick_4">
     <g id="line2d_7">
      <path d="M 211.548709 224.64 
L 211.548709 7.2 
" clip-path="url(#p1522bbc570)" style="fill: none; stroke-dasharray: 1.6,0.4,0.25,0.4; stroke-dashoffset: 0; stroke: #000000; stroke-width: 0.25"/>
     </g>
     <g id="line2d_8">
      <g>
       <use xlink:href="#m86c2fe1d66" x="211.548709" y="224.64" style="stroke: #000000; stroke-width: 0.8"/>
      </g>
     </g>
     <g id="text_4">
      <!-- 60 -->
      <g transform="translate(205.186209 239.238437)scale(0.1 -0.1)">
       <defs>
        <path id="DejaVuSans-36" d="M 2113 2584 
Q 1688 2584 1439 2293 
Q 1191 2003 1191 1497 
Q 1191 994 1439 701 
Q 1688 409 2113 409 
Q 2538 409 2786 701 
Q 3034 994 3034 1497 
Q 3034 2003 2786 2293 
Q 2538 2584 2113 2584 
z
M 3366 4563 
L 3366 3988 
Q 3128 4100 2886 4159 
Q 2644 4219 2406 4219 
Q 1781 4219 1451 3797 
Q 1122 3375 1075 2522 
Q 1259 2794 1537 2939 
Q 1816 3084 2150 3084 
Q 2853 3084 3261 2657 
Q 3669 2231 3669 1497 
Q 3669 778 3244 343 
Q 2819 -91 2113 -91 
Q 1303 -91 875 529 
Q 447 1150 447 2328 
Q 447 3434 972 4092 
Q 1497 4750 2381 4750 
Q 2619 4750 2861 4703 
Q 3103 4656 3366 4563 
z
" transform="scale(0.015625)"/>
       </defs>
       <use xlink:href="#DejaVuSans-36"/>
       <use xlink:href="#DejaVuSans-30" x="63.623047"/>
      </g>
     </g>
    </g>
    <g id="xtick_5">
     <g id="line2d_9">
      <path d="M 257.664411 224.64 
L 257.664411 7.2 
" clip-path="url(#p1522bbc570)" style="fill: none; stroke-dasharray: 1.6,0.4,0.25,0.4; stroke-dashoffset: 0; stroke: #000000; stroke-width: 0.25"/>
     </g>
     <g id="line2d_10">
      <g>
       <use xlink:href="#m86c2fe1d66" x="257.664411" y="224.64" style="stroke: #000000; stroke-width: 0.8"/>
      </g>
     </g>
     <g id="text_5">
      <!-- 80 -->
      <g transform="translate(251.301911 239.238437)scale(0.1 -0.1)">
       <defs>
        <path id="DejaVuSans-38" d="M 2034 2216 
Q 1584 2216 1326 1975 
Q 1069 1734 1069 1313 
Q 1069 891 1326 650 
Q 1584 409 2034 409 
Q 2484 409 2743 651 
Q 3003 894 3003 1313 
Q 3003 1734 2745 1975 
Q 2488 2216 2034 2216 
z
M 1403 2484 
Q 997 2584 770 2862 
Q 544 3141 544 3541 
Q 544 4100 942 4425 
Q 1341 4750 2034 4750 
Q 2731 4750 3128 4425 
Q 3525 4100 3525 3541 
Q 3525 3141 3298 2862 
Q 3072 2584 2669 2484 
Q 3125 2378 3379 2068 
Q 3634 1759 3634 1313 
Q 3634 634 3220 271 
Q 2806 -91 2034 -91 
Q 1263 -91 848 271 
Q 434 634 434 1313 
Q 434 1759 690 2068 
Q 947 2378 1403 2484 
z
M 1172 3481 
Q 1172 3119 1398 2916 
Q 1625 2713 2034 2713 
Q 2441 2713 2670 2916 
Q 2900 3119 2900 3481 
Q 2900 3844 2670 4047 
Q 2441 4250 2034 4250 
Q 1625 4250 1398 4047 
Q 1172 3844 1172 3481 
z
" transform="scale(0.015625)"/>
       </defs>
       <use xlink:href="#DejaVuSans-38"/>
       <use xlink:href="#DejaVuSans-30" x="63.623047"/>
      </g>
     </g>
    </g>
    <g id="xtick_6">
     <g id="line2d_11">
      <path d="M 303.780114 224.64 
L 303.780114 7.2 
" clip-path="url(#p1522bbc570)" style="fill: none; stroke-dasharray: 1.6,0.4,0.25,0.4; stroke-dashoffset: 0; stroke: #000000; stroke-width: 0.25"/>
     </g>
     <g id="line2d_12">
      <g>
       <use xlink:href="#m86c2fe1d66" x="303.780114" y="224.64" style="stroke: #000000; stroke-width: 0.8"/>
      </g>
     </g>
     <g id="text_6">
      <!-- 100 -->
      <g transform="translate(294.236364 239.238437)scale(0.1 -0.1)">
       <defs>
        <path id="DejaVuSans-31" d="M 794 531 
L 1825 531 
L 1825 4091 
L 703 3866 
L 703 4441 
L 1819 4666 
L 2450 4666 
L 2450 531 
L 3481 531 
L 3481 0 
L 794 0 
L 794 531 
z
" transform="scale(0.015625)"/>
       </defs>
       <use xlink:href="#DejaVuSans-31"/>
       <use xlink:href="#DejaVuSans-30" x="63.623047"/>
       <use xlink:href="#DejaVuSans-30" x="127.246094"/>
      </g>
     </g>
    </g>
    <g id="text_7">
     <!-- Distance -->
     <g transform="translate(155.099432 252.916562)scale(0.1 -0.1)">
      <defs>
       <path id="DejaVuSans-44" d="M 1259 4147 
L 1259 519 
L 2022 519 
Q 2988 519 3436 956 
Q 3884 1394 3884 2338 
Q 3884 3275 3436 3711 
Q 2988 4147 2022 4147 
L 1259 4147 
z
M 628 4666 
L 1925 4666 
Q 3281 4666 3915 4102 
Q 4550 3538 4550 2338 
Q 4550 1131 3912 565 
Q 3275 0 1925 0 
L 628 0 
L 628 4666 
z
" transform="scale(0.015625)"/>
       <path id="DejaVuSans-69" d="M 603 3500 
L 1178 3500 
L 1178 0 
L 603 0 
L 603 3500 
z
M 603 4863 
L 1178 4863 
L 1178 4134 
L 603 4134 
L 603 4863 
z
" transform="scale(0.015625)"/>
       <path id="DejaVuSans-73" d="M 2834 3397 
L 2834 2853 
Q 2591 2978 2328 3040 
Q 2066 3103 1784 3103 
Q 1356 3103 1142 2972 
Q 928 2841 928 2578 
Q 928 2378 1081 2264 
Q 1234 2150 1697 2047 
L 1894 2003 
Q 2506 1872 2764 1633 
Q 3022 1394 3022 966 
Q 3022 478 2636 193 
Q 2250 -91 1575 -91 
Q 1294 -91 989 -36 
Q 684 19 347 128 
L 347 722 
Q 666 556 975 473 
Q 1284 391 1588 391 
Q 1994 391 2212 530 
Q 2431 669 2431 922 
Q 2431 1156 2273 1281 
Q 2116 1406 1581 1522 
L 1381 1569 
Q 847 1681 609 1914 
Q 372 2147 372 2553 
Q 372 3047 722 3315 
Q 1072 3584 1716 3584 
Q 2034 3584 2315 3537 
Q 2597 3491 2834 3397 
z
" transform="scale(0.015625)"/>
       <path id="DejaVuSans-74" d="M 1172 4494 
L 1172 3500 
L 2356 3500 
L 2356 3053 
L 1172 3053 
L 1172 1153 
Q 1172 725 1289 603 
Q 1406 481 1766 481 
L 2356 481 
L 2356 0 
L 1766 0 
Q 1100 0 847 248 
Q 594 497 594 1153 
L 594 3053 
L 172 3053 
L 172 3500 
L 594 3500 
L 594 4494 
L 1172 4494 
z
" transform="scale(0.015625)"/>
       <path id="DejaVuSans-61" d="M 2194 1759 
Q 1497 1759 1228 1600 
Q 959 1441 959 1056 
Q 959 750 1161 570 
Q 1363 391 1709 391 
Q 2188 391 2477 730 
Q 2766 1069 2766 1631 
L 2766 1759 
L 2194 1759 
z
M 3341 1997 
L 3341 0 
L 2766 0 
L 2766 531 
Q 2569 213 2275 61 
Q 1981 -91 1556 -91 
Q 1019 -91 701 211 
Q 384 513 384 1019 
Q 384 1609 779 1909 
Q 1175 2209 1959 2209 
L 2766 2209 
L 2766 2266 
Q 2766 2663 2505 2880 
Q 2244 3097 1772 3097 
Q 1472 3097 1187 3025 
Q 903 2953 641 2809 
L 641 3341 
Q 956 3463 1253 3523 
Q 1550 3584 1831 3584 
Q 2591 3584 2966 3190 
Q 3341 2797 3341 1997 
z
" transform="scale(0.015625)"/>
       <path id="DejaVuSans-6e" d="M 3513 2113 
L 3513 0 
L 2938 0 
L 2938 2094 
Q 2938 2591 2744 2837 
Q 2550 3084 2163 3084 
Q 1697 3084 1428 2787 
Q 1159 2491 1159 1978 
L 1159 0 
L 581 0 
L 581 3500 
L 1159 3500 
L 1159 2956 
Q 1366 3272 1645 3428 
Q 1925 3584 2291 3584 
Q 2894 3584 3203 3211 
Q 3513 2838 3513 2113 
z
" transform="scale(0.015625)"/>
       <path id="DejaVuSans-63" d="M 3122 3366 
L 3122 2828 
Q 2878 2963 2633 3030 
Q 2388 3097 2138 3097 
Q 1578 3097 1268 2742 
Q 959 2388 959 1747 
Q 959 1106 1268 751 
Q 1578 397 2138 397 
Q 2388 397 2633 464 
Q 2878 531 3122 666 
L 3122 134 
Q 2881 22 2623 -34 
Q 2366 -91 2075 -91 
Q 1284 -91 818 406 
Q 353 903 353 1747 
Q 353 2603 823 3093 
Q 1294 3584 2113 3584 
Q 2378 3584 2631 3529 
Q 2884 3475 3122 3366 
z
" transform="scale(0.015625)"/>
       <path id="DejaVuSans-65" d="M 3597 1894 
L 3597 1613 
L 953 1613 
Q 991 1019 1311 708 
Q 1631 397 2203 397 
Q 2534 397 2845 478 
Q 3156 559 3463 722 
L 3463 178 
Q 3153 47 2828 -22 
Q 2503 -91 2169 -91 
Q 1331 -91 842 396 
Q 353 884 353 1716 
Q 353 2575 817 3079 
Q 1281 3584 2069 3584 
Q 2775 3584 3186 3129 
Q 3597 2675 3597 1894 
z
M 3022 2063 
Q 3016 2534 2758 2815 
Q 2500 3097 2075 3097 
Q 1594 3097 1305 2825 
Q 1016 2553 972 2059 
L 3022 2063 
z
" transform="scale(0.015625)"/>
      </defs>
      <use xlink:href="#DejaVuSans-44"/>
      <use xlink:href="#DejaVuSans-69" x="77.001953"/>
      <use xlink:href="#DejaVuSans-73" x="104.785156"/>
      <use xlink:href="#DejaVuSans-74" x="156.884766"/>
      <use xlink:href="#DejaVuSans-61" x="196.09375"/>
      <use xlink:href="#DejaVuSans-6e" x="257.373047"/>
      <use xlink:href="#DejaVuSans-63" x="320.751953"/>
      <use xlink:href="#DejaVuSans-65" x="375.732422"/>
     </g>
    </g>
   </g>
   <g id="matplotlib.axis_2">
    <g id="ytick_1">
     <g id="line2d_13">
      <path d="M 50.14375 224.64 
L 303.780114 224.64 
" clip-path="url(#p1522bbc570)" style="fill: none; stroke-dasharray: 1.6,0.4,0.25,0.4; stroke-dashoffset: 0; stroke: #000000; stroke-width: 0.25"/>
     </g>
     <g id="line2d_14">
      <defs>
       <path id="m4e429e874a" d="M 0 0 
L -3.5 0 
" style="stroke: #000000; stroke-width: 0.8"/>
      </defs>
      <g>
       <use xlink:href="#m4e429e874a" x="50.14375" y="224.64" style="stroke: #000000; stroke-width: 0.8"/>
      </g>
     </g>
     <g id="text_8">
      <!-- 0.00 -->
      <g transform="translate(20.878125 228.439219)scale(0.1 -0.1)">
       <defs>
        <path id="DejaVuSans-2e" d="M 684 794 
L 1344 794 
L 1344 0 
L 684 0 
L 684 794 
z
" transform="scale(0.015625)"/>
       </defs>
       <use xlink:href="#DejaVuSans-30"/>
       <use xlink:href="#DejaVuSans-2e" x="63.623047"/>
       <use xlink:href="#DejaVuSans-30" x="95.410156"/>
       <use xlink:href="#DejaVuSans-30" x="159.033203"/>
      </g>
     </g>
    </g>
    <g id="ytick_2">
     <g id="line2d_15">
      <path d="M 50.14375 176.32 
L 303.780114 176.32 
" clip-path="url(#p1522bbc570)" style="fill: none; stroke-dasharray: 1.6,0.4,0.25,0.4; stroke-dashoffset: 0; stroke: #000000; stroke-width: 0.25"/>
     </g>
     <g id="line2d_16">
      <g>
       <use xlink:href="#m4e429e874a" x="50.14375" y="176.32" style="stroke: #000000; stroke-width: 0.8"/>
      </g>
     </g>
     <g id="text_9">
      <!-- 0.01 -->
      <g transform="translate(20.878125 180.119219)scale(0.1 -0.1)">
       <use xlink:href="#DejaVuSans-30"/>
       <use xlink:href="#DejaVuSans-2e" x="63.623047"/>
       <use xlink:href="#DejaVuSans-30" x="95.410156"/>
       <use xlink:href="#DejaVuSans-31" x="159.033203"/>
      </g>
     </g>
    </g>
    <g id="ytick_3">
     <g id="line2d_17">
      <path d="M 50.14375 128 
L 303.780114 128 
" clip-path="url(#p1522bbc570)" style="fill: none; stroke-dasharray: 1.6,0.4,0.25,0.4; stroke-dashoffset: 0; stroke: #000000; stroke-width: 0.25"/>
     </g>
     <g id="line2d_18">
      <g>
       <use xlink:href="#m4e429e874a" x="50.14375" y="128" style="stroke: #000000; stroke-width: 0.8"/>
      </g>
     </g>
     <g id="text_10">
      <!-- 0.02 -->
      <g transform="translate(20.878125 131.799219)scale(0.1 -0.1)">
       <use xlink:href="#DejaVuSans-30"/>
       <use xlink:href="#DejaVuSans-2e" x="63.623047"/>
       <use xlink:href="#DejaVuSans-30" x="95.410156"/>
       <use xlink:href="#DejaVuSans-32" x="159.033203"/>
      </g>
     </g>
    </g>
    <g id="ytick_4">
     <g id="line2d_19">
      <path d="M 50.14375 79.68 
L 303.780114 79.68 
" clip-path="url(#p1522bbc570)" style="fill: none; stroke-dasharray: 1.6,0.4,0.25,0.4; stroke-dashoffset: 0; stroke: #000000; stroke-width: 0.25"/>
     </g>
     <g id="line2d_20">
      <g>
       <use xlink:href="#m4e429e874a" x="50.14375" y="79.68" style="stroke: #000000; stroke-width: 0.8"/>
      </g>
     </g>
     <g id="text_11">
      <!-- 0.03 -->
      <g transform="translate(20.878125 83.479219)scale(0.1 -0.1)">
       <defs>
        <path id="DejaVuSans-33" d="M 2597 2516 
Q 3050 2419 3304 2112 
Q 3559 1806 3559 1356 
Q 3559 666 3084 287 
Q 2609 -91 1734 -91 
Q 1441 -91 1130 -33 
Q 819 25 488 141 
L 488 750 
Q 750 597 1062 519 
Q 1375 441 1716 441 
Q 2309 441 2620 675 
Q 2931 909 2931 1356 
Q 2931 1769 2642 2001 
Q 2353 2234 1838 2234 
L 1294 2234 
L 1294 2753 
L 1863 2753 
Q 2328 2753 2575 2939 
Q 2822 3125 2822 3475 
Q 2822 3834 2567 4026 
Q 2313 4219 1838 4219 
Q 1578 4219 1281 4162 
Q 984 4106 628 3988 
L 628 4550 
Q 988 4650 1302 4700 
Q 1616 4750 1894 4750 
Q 2613 4750 3031 4423 
Q 3450 4097 3450 3541 
Q 3450 3153 3228 2886 
Q 3006 2619 2597 2516 
z
" transform="scale(0.015625)"/>
       </defs>
       <use xlink:href="#DejaVuSans-30"/>
       <use xlink:href="#DejaVuSans-2e" x="63.623047"/>
       <use xlink:href="#DejaVuSans-30" x="95.410156"/>
       <use xlink:href="#DejaVuSans-33" x="159.033203"/>
      </g>
     </g>
    </g>
    <g id="ytick_5">
     <g id="line2d_21">
      <path d="M 50.14375 31.36 
L 303.780114 31.36 
" clip-path="url(#p1522bbc570)" style="fill: none; stroke-dasharray: 1.6,0.4,0.25,0.4; stroke-dashoffset: 0; stroke: #000000; stroke-width: 0.25"/>
     </g>
     <g id="line2d_22">
      <g>
       <use xlink:href="#m4e429e874a" x="50.14375" y="31.36" style="stroke: #000000; stroke-width: 0.8"/>
      </g>
     </g>
     <g id="text_12">
      <!-- 0.04 -->
      <g transform="translate(20.878125 35.159219)scale(0.1 -0.1)">
       <use xlink:href="#DejaVuSans-30"/>
       <use xlink:href="#DejaVuSans-2e" x="63.623047"/>
       <use xlink:href="#DejaVuSans-30" x="95.410156"/>
       <use xlink:href="#DejaVuSans-34" x="159.033203"/>
      </g>
     </g>
    </g>
    <g id="text_13">
     <!-- Density -->
     <g transform="translate(14.798437 134.928594)rotate(-90)scale(0.1 -0.1)">
      <defs>
       <path id="DejaVuSans-79" d="M 2059 -325 
Q 1816 -950 1584 -1140 
Q 1353 -1331 966 -1331 
L 506 -1331 
L 506 -850 
L 844 -850 
Q 1081 -850 1212 -737 
Q 1344 -625 1503 -206 
L 1606 56 
L 191 3500 
L 800 3500 
L 1894 763 
L 2988 3500 
L 3597 3500 
L 2059 -325 
z
" transform="scale(0.015625)"/>
      </defs>
      <use xlink:href="#DejaVuSans-44"/>
      <use xlink:href="#DejaVuSans-65" x="77.001953"/>
      <use xlink:href="#DejaVuSans-6e" x="138.525391"/>
      <use xlink:href="#DejaVuSans-73" x="201.904297"/>
      <use xlink:href="#DejaVuSans-69" x="254.003906"/>
      <use xlink:href="#DejaVuSans-74" x="281.787109"/>
      <use xlink:href="#DejaVuSans-79" x="320.996094"/>
     </g>
    </g>
   </g>
   <g id="line2d_23">
    <path d="M 66.079324 224.631107 
L 68.39618 224.554026 
L 69.554608 224.412818 
L 70.713036 224.09808 
L 71.871464 223.466571 
L 73.029892 222.318552 
L 74.188321 220.412152 
L 75.346749 217.490768 
L 76.505177 213.310304 
L 77.663605 207.653783 
L 78.822033 200.334007 
L 79.980461 191.197481 
L 81.138889 180.140355 
L 82.297318 167.134114 
L 83.455746 152.255997 
L 85.772602 117.999403 
L 88.089458 81.979208 
L 89.247886 65.69407 
L 90.406315 51.816952 
L 91.564743 40.90579 
L 92.723171 33.099039 
L 93.881599 28.186541 
L 95.040027 25.726585 
L 96.198455 25.120283 
L 97.356883 25.646524 
L 98.515312 26.537534 
L 99.67374 27.149448 
L 100.832168 27.16944 
L 103.149024 26.176111 
L 104.307452 25.959284 
L 105.46588 26.158121 
L 106.624309 26.538436 
L 107.782737 26.761591 
L 110.099593 26.703747 
L 111.258021 27.382864 
L 112.416449 29.433917 
L 113.574877 33.185849 
L 114.733306 38.381156 
L 117.050162 49.783274 
L 118.20859 54.248354 
L 119.367018 57.313526 
L 120.525446 59.088117 
L 121.683874 59.926133 
L 122.842303 60.240309 
L 124.000731 60.411426 
L 125.159159 60.770633 
L 126.317587 61.583792 
L 127.476015 63.013365 
L 128.634443 65.101714 
L 129.792871 67.822737 
L 130.951299 71.177303 
L 132.109728 75.243976 
L 133.268156 80.123883 
L 134.426584 85.821835 
L 136.74344 98.921742 
L 141.377153 126.924195 
L 144.852437 147.941156 
L 146.010865 154.004033 
L 147.169293 159.373475 
L 149.48615 168.650056 
L 152.961434 181.372171 
L 155.27829 188.789878 
L 158.753575 198.364114 
L 161.070431 204.43471 
L 163.387287 209.799174 
L 164.545716 212.073028 
L 165.704144 214.026864 
L 166.862572 215.621546 
L 168.021 216.839064 
L 169.179428 217.716109 
L 171.496284 218.866786 
L 173.813141 219.920092 
L 178.446853 222.17374 
L 180.763709 222.892032 
L 183.080566 223.247129 
L 188.872706 223.64098 
L 193.506419 224.044165 
L 195.823275 224.220887 
L 198.140132 224.212584 
L 202.773844 224.071216 
L 207.407557 224.330148 
L 212.041269 224.505332 
L 214.358126 224.420177 
L 218.991838 224.05838 
L 221.308694 224.12003 
L 227.100835 224.466337 
L 249.11097 224.64 
L 285.022242 224.535667 
L 289.655955 224.543241 
L 296.606523 224.638533 
L 296.606523 224.638533 
" clip-path="url(#p1522bbc570)" style="fill: none; stroke: #808080; stroke-width: 1.5; stroke-linecap: square"/>
   </g>
   <g id="patch_3">
    <path d="M 50.14375 224.64 
L 50.14375 7.2 
" style="fill: none; stroke: #000000; stroke-width: 0.8; stroke-linejoin: miter; stroke-linecap: square"/>
   </g>
   <g id="patch_4">
    <path d="M 303.780114 224.64 
L 303.780114 7.2 
" style="fill: none; stroke: #000000; stroke-width: 0.8; stroke-linejoin: miter; stroke-linecap: square"/>
   </g>
   <g id="patch_5">
    <path d="M 50.14375 224.64 
L 303.780114 224.64 
" style="fill: none; stroke: #000000; stroke-width: 0.8; stroke-linejoin: miter; stroke-linecap: square"/>
   </g>
   <g id="patch_6">
    <path d="M 50.14375 7.2 
L 303.780114 7.2 
" style="fill: none; stroke: #000000; stroke-width: 0.8; stroke-linejoin: miter; stroke-linecap: square"/>
   </g>
   <g id="text_14">
    <!-- a) -->
    <g transform="translate(174.656147 272.96)scale(0.12 -0.12)">
     <defs>
      <path id="DejaVuSans-29" d="M 513 4856 
L 1013 4856 
Q 1481 4119 1714 3412 
Q 1947 2706 1947 2009 
Q 1947 1309 1714 600 
Q 1481 -109 1013 -844 
L 513 -844 
Q 928 -128 1133 580 
Q 1338 1288 1338 2009 
Q 1338 2731 1133 3434 
Q 928 4138 513 4856 
z
" transform="scale(0.015625)"/>
     </defs>
     <use xlink:href="#DejaVuSans-61"/>
     <use xlink:href="#DejaVuSans-29" x="61.279297"/>
    </g>
   </g>
  </g>
  <g id="axes_2">
   <g id="patch_7">
    <path d="M 354.507386 224.64 
L 608.14375 224.64 
L 608.14375 7.2 
L 354.507386 7.2 
z
" style="fill: #ffffff"/>
   </g>
   <g id="matplotlib.axis_3">
    <g id="xtick_7">
     <g id="line2d_24">
      <path d="M 376.377117 224.64 
L 376.377117 7.2 
" clip-path="url(#p0d7126d566)" style="fill: none; stroke-dasharray: 1.6,0.4,0.25,0.4; stroke-dashoffset: 0; stroke: #000000; stroke-width: 0.25"/>
     </g>
     <g id="line2d_25">
      <g>
       <use xlink:href="#m86c2fe1d66" x="376.377117" y="224.64" style="stroke: #000000; stroke-width: 0.8"/>
      </g>
     </g>
     <g id="text_15">
      <!-- 0.0 -->
      <g transform="translate(368.425555 239.238437)scale(0.1 -0.1)">
       <use xlink:href="#DejaVuSans-30"/>
       <use xlink:href="#DejaVuSans-2e" x="63.623047"/>
       <use xlink:href="#DejaVuSans-30" x="95.410156"/>
      </g>
     </g>
    </g>
    <g id="xtick_8">
     <g id="line2d_26">
      <path d="M 409.783247 224.64 
L 409.783247 7.2 
" clip-path="url(#p0d7126d566)" style="fill: none; stroke-dasharray: 1.6,0.4,0.25,0.4; stroke-dashoffset: 0; stroke: #000000; stroke-width: 0.25"/>
     </g>
     <g id="line2d_27">
      <g>
       <use xlink:href="#m86c2fe1d66" x="409.783247" y="224.64" style="stroke: #000000; stroke-width: 0.8"/>
      </g>
     </g>
     <g id="text_16">
      <!-- 0.5 -->
      <g transform="translate(401.831684 239.238437)scale(0.1 -0.1)">
       <defs>
        <path id="DejaVuSans-35" d="M 691 4666 
L 3169 4666 
L 3169 4134 
L 1269 4134 
L 1269 2991 
Q 1406 3038 1543 3061 
Q 1681 3084 1819 3084 
Q 2600 3084 3056 2656 
Q 3513 2228 3513 1497 
Q 3513 744 3044 326 
Q 2575 -91 1722 -91 
Q 1428 -91 1123 -41 
Q 819 9 494 109 
L 494 744 
Q 775 591 1075 516 
Q 1375 441 1709 441 
Q 2250 441 2565 725 
Q 2881 1009 2881 1497 
Q 2881 1984 2565 2268 
Q 2250 2553 1709 2553 
Q 1456 2553 1204 2497 
Q 953 2441 691 2322 
L 691 4666 
z
" transform="scale(0.015625)"/>
       </defs>
       <use xlink:href="#DejaVuSans-30"/>
       <use xlink:href="#DejaVuSans-2e" x="63.623047"/>
       <use xlink:href="#DejaVuSans-35" x="95.410156"/>
      </g>
     </g>
    </g>
    <g id="xtick_9">
     <g id="line2d_28">
      <path d="M 443.189376 224.64 
L 443.189376 7.2 
" clip-path="url(#p0d7126d566)" style="fill: none; stroke-dasharray: 1.6,0.4,0.25,0.4; stroke-dashoffset: 0; stroke: #000000; stroke-width: 0.25"/>
     </g>
     <g id="line2d_29">
      <g>
       <use xlink:href="#m86c2fe1d66" x="443.189376" y="224.64" style="stroke: #000000; stroke-width: 0.8"/>
      </g>
     </g>
     <g id="text_17">
      <!-- 1.0 -->
      <g transform="translate(435.237814 239.238437)scale(0.1 -0.1)">
       <use xlink:href="#DejaVuSans-31"/>
       <use xlink:href="#DejaVuSans-2e" x="63.623047"/>
       <use xlink:href="#DejaVuSans-30" x="95.410156"/>
      </g>
     </g>
    </g>
    <g id="xtick_10">
     <g id="line2d_30">
      <path d="M 476.595506 224.64 
L 476.595506 7.2 
" clip-path="url(#p0d7126d566)" style="fill: none; stroke-dasharray: 1.6,0.4,0.25,0.4; stroke-dashoffset: 0; stroke: #000000; stroke-width: 0.25"/>
     </g>
     <g id="line2d_31">
      <g>
       <use xlink:href="#m86c2fe1d66" x="476.595506" y="224.64" style="stroke: #000000; stroke-width: 0.8"/>
      </g>
     </g>
     <g id="text_18">
      <!-- 1.5 -->
      <g transform="translate(468.643943 239.238437)scale(0.1 -0.1)">
       <use xlink:href="#DejaVuSans-31"/>
       <use xlink:href="#DejaVuSans-2e" x="63.623047"/>
       <use xlink:href="#DejaVuSans-35" x="95.410156"/>
      </g>
     </g>
    </g>
    <g id="xtick_11">
     <g id="line2d_32">
      <path d="M 510.001635 224.64 
L 510.001635 7.2 
" clip-path="url(#p0d7126d566)" style="fill: none; stroke-dasharray: 1.6,0.4,0.25,0.4; stroke-dashoffset: 0; stroke: #000000; stroke-width: 0.25"/>
     </g>
     <g id="line2d_33">
      <g>
       <use xlink:href="#m86c2fe1d66" x="510.001635" y="224.64" style="stroke: #000000; stroke-width: 0.8"/>
      </g>
     </g>
     <g id="text_19">
      <!-- 2.0 -->
      <g transform="translate(502.050073 239.238437)scale(0.1 -0.1)">
       <use xlink:href="#DejaVuSans-32"/>
       <use xlink:href="#DejaVuSans-2e" x="63.623047"/>
       <use xlink:href="#DejaVuSans-30" x="95.410156"/>
      </g>
     </g>
    </g>
    <g id="xtick_12">
     <g id="line2d_34">
      <path d="M 543.407765 224.64 
L 543.407765 7.2 
" clip-path="url(#p0d7126d566)" style="fill: none; stroke-dasharray: 1.6,0.4,0.25,0.4; stroke-dashoffset: 0; stroke: #000000; stroke-width: 0.25"/>
     </g>
     <g id="line2d_35">
      <g>
       <use xlink:href="#m86c2fe1d66" x="543.407765" y="224.64" style="stroke: #000000; stroke-width: 0.8"/>
      </g>
     </g>
     <g id="text_20">
      <!-- 2.5 -->
      <g transform="translate(535.456202 239.238437)scale(0.1 -0.1)">
       <use xlink:href="#DejaVuSans-32"/>
       <use xlink:href="#DejaVuSans-2e" x="63.623047"/>
       <use xlink:href="#DejaVuSans-35" x="95.410156"/>
      </g>
     </g>
    </g>
    <g id="xtick_13">
     <g id="line2d_36">
      <path d="M 576.813894 224.64 
L 576.813894 7.2 
" clip-path="url(#p0d7126d566)" style="fill: none; stroke-dasharray: 1.6,0.4,0.25,0.4; stroke-dashoffset: 0; stroke: #000000; stroke-width: 0.25"/>
     </g>
     <g id="line2d_37">
      <g>
       <use xlink:href="#m86c2fe1d66" x="576.813894" y="224.64" style="stroke: #000000; stroke-width: 0.8"/>
      </g>
     </g>
     <g id="text_21">
      <!-- 3.0 -->
      <g transform="translate(568.862332 239.238437)scale(0.1 -0.1)">
       <use xlink:href="#DejaVuSans-33"/>
       <use xlink:href="#DejaVuSans-2e" x="63.623047"/>
       <use xlink:href="#DejaVuSans-30" x="95.410156"/>
      </g>
     </g>
    </g>
    <g id="text_22">
     <!-- Angle -->
     <g transform="translate(467.096662 252.916562)scale(0.1 -0.1)">
      <defs>
       <path id="DejaVuSans-41" d="M 2188 4044 
L 1331 1722 
L 3047 1722 
L 2188 4044 
z
M 1831 4666 
L 2547 4666 
L 4325 0 
L 3669 0 
L 3244 1197 
L 1141 1197 
L 716 0 
L 50 0 
L 1831 4666 
z
" transform="scale(0.015625)"/>
       <path id="DejaVuSans-67" d="M 2906 1791 
Q 2906 2416 2648 2759 
Q 2391 3103 1925 3103 
Q 1463 3103 1205 2759 
Q 947 2416 947 1791 
Q 947 1169 1205 825 
Q 1463 481 1925 481 
Q 2391 481 2648 825 
Q 2906 1169 2906 1791 
z
M 3481 434 
Q 3481 -459 3084 -895 
Q 2688 -1331 1869 -1331 
Q 1566 -1331 1297 -1286 
Q 1028 -1241 775 -1147 
L 775 -588 
Q 1028 -725 1275 -790 
Q 1522 -856 1778 -856 
Q 2344 -856 2625 -561 
Q 2906 -266 2906 331 
L 2906 616 
Q 2728 306 2450 153 
Q 2172 0 1784 0 
Q 1141 0 747 490 
Q 353 981 353 1791 
Q 353 2603 747 3093 
Q 1141 3584 1784 3584 
Q 2172 3584 2450 3431 
Q 2728 3278 2906 2969 
L 2906 3500 
L 3481 3500 
L 3481 434 
z
" transform="scale(0.015625)"/>
       <path id="DejaVuSans-6c" d="M 603 4863 
L 1178 4863 
L 1178 0 
L 603 0 
L 603 4863 
z
" transform="scale(0.015625)"/>
      </defs>
      <use xlink:href="#DejaVuSans-41"/>
      <use xlink:href="#DejaVuSans-6e" x="68.408203"/>
      <use xlink:href="#DejaVuSans-67" x="131.787109"/>
      <use xlink:href="#DejaVuSans-6c" x="195.263672"/>
      <use xlink:href="#DejaVuSans-65" x="223.046875"/>
     </g>
    </g>
   </g>
   <g id="matplotlib.axis_4">
    <g id="ytick_6">
     <g id="line2d_38">
      <path d="M 354.507386 224.64 
L 608.14375 224.64 
" clip-path="url(#p0d7126d566)" style="fill: none; stroke-dasharray: 1.6,0.4,0.25,0.4; stroke-dashoffset: 0; stroke: #000000; stroke-width: 0.25"/>
     </g>
     <g id="line2d_39">
      <g>
       <use xlink:href="#m4e429e874a" x="354.507386" y="224.64" style="stroke: #000000; stroke-width: 0.8"/>
      </g>
     </g>
     <g id="text_23">
      <!-- 0.0 -->
      <g transform="translate(331.604261 228.439219)scale(0.1 -0.1)">
       <use xlink:href="#DejaVuSans-30"/>
       <use xlink:href="#DejaVuSans-2e" x="63.623047"/>
       <use xlink:href="#DejaVuSans-30" x="95.410156"/>
      </g>
     </g>
    </g>
    <g id="ytick_7">
     <g id="line2d_40">
      <path d="M 354.507386 185.811429 
L 608.14375 185.811429 
" clip-path="url(#p0d7126d566)" style="fill: none; stroke-dasharray: 1.6,0.4,0.25,0.4; stroke-dashoffset: 0; stroke: #000000; stroke-width: 0.25"/>
     </g>
     <g id="line2d_41">
      <g>
       <use xlink:href="#m4e429e874a" x="354.507386" y="185.811429" style="stroke: #000000; stroke-width: 0.8"/>
      </g>
     </g>
     <g id="text_24">
      <!-- 0.5 -->
      <g transform="translate(331.604261 189.610647)scale(0.1 -0.1)">
       <use xlink:href="#DejaVuSans-30"/>
       <use xlink:href="#DejaVuSans-2e" x="63.623047"/>
       <use xlink:href="#DejaVuSans-35" x="95.410156"/>
      </g>
     </g>
    </g>
    <g id="ytick_8">
     <g id="line2d_42">
      <path d="M 354.507386 146.982857 
L 608.14375 146.982857 
" clip-path="url(#p0d7126d566)" style="fill: none; stroke-dasharray: 1.6,0.4,0.25,0.4; stroke-dashoffset: 0; stroke: #000000; stroke-width: 0.25"/>
     </g>
     <g id="line2d_43">
      <g>
       <use xlink:href="#m4e429e874a" x="354.507386" y="146.982857" style="stroke: #000000; stroke-width: 0.8"/>
      </g>
     </g>
     <g id="text_25">
      <!-- 1.0 -->
      <g transform="translate(331.604261 150.782076)scale(0.1 -0.1)">
       <use xlink:href="#DejaVuSans-31"/>
       <use xlink:href="#DejaVuSans-2e" x="63.623047"/>
       <use xlink:href="#DejaVuSans-30" x="95.410156"/>
      </g>
     </g>
    </g>
    <g id="ytick_9">
     <g id="line2d_44">
      <path d="M 354.507386 108.154286 
L 608.14375 108.154286 
" clip-path="url(#p0d7126d566)" style="fill: none; stroke-dasharray: 1.6,0.4,0.25,0.4; stroke-dashoffset: 0; stroke: #000000; stroke-width: 0.25"/>
     </g>
     <g id="line2d_45">
      <g>
       <use xlink:href="#m4e429e874a" x="354.507386" y="108.154286" style="stroke: #000000; stroke-width: 0.8"/>
      </g>
     </g>
     <g id="text_26">
      <!-- 1.5 -->
      <g transform="translate(331.604261 111.953504)scale(0.1 -0.1)">
       <use xlink:href="#DejaVuSans-31"/>
       <use xlink:href="#DejaVuSans-2e" x="63.623047"/>
       <use xlink:href="#DejaVuSans-35" x="95.410156"/>
      </g>
     </g>
    </g>
    <g id="ytick_10">
     <g id="line2d_46">
      <path d="M 354.507386 69.325714 
L 608.14375 69.325714 
" clip-path="url(#p0d7126d566)" style="fill: none; stroke-dasharray: 1.6,0.4,0.25,0.4; stroke-dashoffset: 0; stroke: #000000; stroke-width: 0.25"/>
     </g>
     <g id="line2d_47">
      <g>
       <use xlink:href="#m4e429e874a" x="354.507386" y="69.325714" style="stroke: #000000; stroke-width: 0.8"/>
      </g>
     </g>
     <g id="text_27">
      <!-- 2.0 -->
      <g transform="translate(331.604261 73.124933)scale(0.1 -0.1)">
       <use xlink:href="#DejaVuSans-32"/>
       <use xlink:href="#DejaVuSans-2e" x="63.623047"/>
       <use xlink:href="#DejaVuSans-30" x="95.410156"/>
      </g>
     </g>
    </g>
    <g id="ytick_11">
     <g id="line2d_48">
      <path d="M 354.507386 30.497143 
L 608.14375 30.497143 
" clip-path="url(#p0d7126d566)" style="fill: none; stroke-dasharray: 1.6,0.4,0.25,0.4; stroke-dashoffset: 0; stroke: #000000; stroke-width: 0.25"/>
     </g>
     <g id="line2d_49">
      <g>
       <use xlink:href="#m4e429e874a" x="354.507386" y="30.497143" style="stroke: #000000; stroke-width: 0.8"/>
      </g>
     </g>
     <g id="text_28">
      <!-- 2.5 -->
      <g transform="translate(331.604261 34.296362)scale(0.1 -0.1)">
       <use xlink:href="#DejaVuSans-32"/>
       <use xlink:href="#DejaVuSans-2e" x="63.623047"/>
       <use xlink:href="#DejaVuSans-35" x="95.410156"/>
      </g>
     </g>
    </g>
    <g id="text_29">
     <!-- Density -->
     <g transform="translate(325.524574 134.928594)rotate(-90)scale(0.1 -0.1)">
      <use xlink:href="#DejaVuSans-44"/>
      <use xlink:href="#DejaVuSans-65" x="77.001953"/>
      <use xlink:href="#DejaVuSans-6e" x="138.525391"/>
      <use xlink:href="#DejaVuSans-73" x="201.904297"/>
      <use xlink:href="#DejaVuSans-69" x="254.003906"/>
      <use xlink:href="#DejaVuSans-74" x="281.787109"/>
      <use xlink:href="#DejaVuSans-79" x="320.996094"/>
     </g>
    </g>
   </g>
   <g id="line2d_50">
    <path d="M 366.036312 224.637739 
L 371.829742 224.520439 
L 374.147114 224.297086 
L 375.3058 224.086881 
L 376.464486 223.754002 
L 377.623172 223.215405 
L 378.781858 222.337253 
L 379.940544 220.914313 
L 381.09923 218.640105 
L 382.257916 215.068111 
L 383.416602 209.581887 
L 384.575288 201.416821 
L 385.733974 189.786104 
L 386.89266 174.130896 
L 388.051346 154.436899 
L 390.368718 106.863623 
L 391.527404 82.763154 
L 392.68609 61.499397 
L 393.844776 45.061587 
L 395.003462 34.756173 
L 396.162148 31.037836 
L 397.320834 33.513249 
L 398.47952 41.080893 
L 399.638206 52.174932 
L 403.114264 90.524832 
L 404.27295 101.348428 
L 405.431636 110.618621 
L 406.590322 118.593805 
L 408.907694 132.232487 
L 411.225066 144.470484 
L 413.542438 155.189502 
L 414.701124 159.605533 
L 415.85981 163.295952 
L 417.018496 166.348534 
L 419.335868 171.392182 
L 425.129298 183.381401 
L 426.287984 185.186868 
L 430.922728 191.392449 
L 434.398786 196.760712 
L 435.557472 198.141426 
L 436.716157 199.148413 
L 437.874843 199.840902 
L 440.192215 200.92482 
L 441.350901 201.60389 
L 445.985645 204.943077 
L 447.144331 205.825728 
L 448.303017 206.863613 
L 450.620389 209.409038 
L 452.937761 211.832449 
L 454.096447 212.768311 
L 458.731191 215.817199 
L 459.889877 216.528799 
L 461.048563 217.107666 
L 462.207249 217.511055 
L 464.524621 217.908188 
L 466.841993 218.238994 
L 469.159365 218.854664 
L 472.635423 219.902908 
L 474.952795 220.336223 
L 484.222283 221.692957 
L 487.698341 222.362848 
L 490.015713 222.546671 
L 494.650457 222.595394 
L 505.078631 223.49589 
L 507.396003 223.775154 
L 510.872061 223.891058 
L 525.934979 223.853331 
L 532.887095 224.272941 
L 543.315269 224.273743 
L 549.108699 224.136237 
L 568.806361 224.639951 
L 596.614824 224.639377 
L 596.614824 224.639377 
" clip-path="url(#p0d7126d566)" style="fill: none; stroke: #ffa500; stroke-width: 1.5; stroke-linecap: square"/>
   </g>
   <g id="patch_8">
    <path d="M 354.507386 224.64 
L 354.507386 7.2 
" style="fill: none; stroke: #000000; stroke-width: 0.8; stroke-linejoin: miter; stroke-linecap: square"/>
   </g>
   <g id="patch_9">
    <path d="M 608.14375 224.64 
L 608.14375 7.2 
" style="fill: none; stroke: #000000; stroke-width: 0.8; stroke-linejoin: miter; stroke-linecap: square"/>
   </g>
   <g id="patch_10">
    <path d="M 354.507386 224.64 
L 608.14375 224.64 
" style="fill: none; stroke: #000000; stroke-width: 0.8; stroke-linejoin: miter; stroke-linecap: square"/>
   </g>
   <g id="patch_11">
    <path d="M 354.507386 7.2 
L 608.14375 7.2 
" style="fill: none; stroke: #000000; stroke-width: 0.8; stroke-linejoin: miter; stroke-linecap: square"/>
   </g>
   <g id="text_30">
    <!-- b) -->
    <g transform="translate(476.595506 273.564)scale(0.12 -0.12)">
     <defs>
      <path id="DejaVuSans-62" d="M 3116 1747 
Q 3116 2381 2855 2742 
Q 2594 3103 2138 3103 
Q 1681 3103 1420 2742 
Q 1159 2381 1159 1747 
Q 1159 1113 1420 752 
Q 1681 391 2138 391 
Q 2594 391 2855 752 
Q 3116 1113 3116 1747 
z
M 1159 2969 
Q 1341 3281 1617 3432 
Q 1894 3584 2278 3584 
Q 2916 3584 3314 3078 
Q 3713 2572 3713 1747 
Q 3713 922 3314 415 
Q 2916 -91 2278 -91 
Q 1894 -91 1617 61 
Q 1341 213 1159 525 
L 1159 0 
L 581 0 
L 581 4863 
L 1159 4863 
L 1159 2969 
z
" transform="scale(0.015625)"/>
     </defs>
     <use xlink:href="#DejaVuSans-62"/>
     <use xlink:href="#DejaVuSans-29" x="63.476562"/>
    </g>
   </g>
  </g>
 </g>
 <defs>
  <clipPath id="p1522bbc570">
   <rect x="50.14375" y="7.2" width="253.636364" height="217.44"/>
  </clipPath>
  <clipPath id="p0d7126d566">
   <rect x="354.507386" y="7.2" width="253.636364" height="217.44"/>
  </clipPath>
 </defs>
</svg>
